<svg id="visual" viewBox="0 0 900 600" width="900" height="600" xmlns="http://www.w3.org/2000/svg" xmlns:xlink="http://www.w3.org/1999/xlink" version="1.1"><rect x="0" y="0" width="900" height="600" fill="#fefffe"></rect><path d="M0 480L15 481.2C30 482.3 60 484.7 90 477C120 469.3 150 451.7 180 445C210 438.3 240 442.7 270 466.7C300 490.7 330 534.3 360 544.7C390 555 420 532 450 526.3C480 520.7 510 532.3 540 528.2C570 524 600 504 630 487.2C660 470.3 690 456.7 720 457.2C750 457.7 780 472.3 810 484C840 495.7 870 504.3 885 508.7L900 513L900 601L885 601C870 601 840 601 810 601C780 601 750 601 720 601C690 601 660 601 630 601C600 601 570 601 540 601C510 601 480 601 450 601C420 601 390 601 360 601C330 601 300 601 270 601C240 601 210 601 180 601C150 601 120 601 90 601C60 601 30 601 15 601L0 601Z" fill="#0066FF" stroke-linecap="round" stroke-linejoin="miter"></path></svg>