<svg id="visual" viewBox="0 0 900 600" width="900" height="600" xmlns="http://www.w3.org/2000/svg" xmlns:xlink="http://www.w3.org/1999/xlink" version="1.1"><rect x="0" y="0" width="900" height="600" fill="#fefffe"></rect><path d="M0 159L15 212.7C30 266.3 60 373.7 90 380C120 386.3 150 291.7 180 248C210 204.3 240 211.7 270 250.2C300 288.7 330 358.3 360 391C390 423.7 420 419.3 450 404.5C480 389.7 510 364.3 540 339C570 313.7 600 288.3 630 299.5C660 310.7 690 358.3 720 353.2C750 348 780 290 810 258.2C840 226.3 870 220.7 885 217.8L900 215L900 601L885 601C870 601 840 601 810 601C780 601 750 601 720 601C690 601 660 601 630 601C600 601 570 601 540 601C510 601 480 601 450 601C420 601 390 601 360 601C330 601 300 601 270 601C240 601 210 601 180 601C150 601 120 601 90 601C60 601 30 601 15 601L0 601Z" fill="#0066FF" stroke-linecap="round" stroke-linejoin="miter"></path></svg>