<svg xmlns:xlink="http://www.w3.org/1999/xlink" xmlns="http://www.w3.org/2000/svg" width="74" height="37" viewBox="0 0 74 37" fill="none">
<path fill-rule="evenodd" clip-rule="evenodd" d="M9.543 17.2297C12.4024 17.9997 15.1879 18.7497 15.1879 20.9934C15.1879 24.9071 11.1679 28.7224 6.61556 28.7224C4.76517 28.7224 4.7406 26.8475 4.78973 26.1843C4.79792 26.0533 4.90436 25.9551 5.03536 25.9551C8.79345 25.8814 12.1422 23.9164 12.1422 21.5502C12.1422 20.2783 10.3557 19.7616 8.15332 19.1247C4.61385 18.1012 0 16.7669 0 11.4877C0 5.47802 5.57574 0.508188 12.355 0.5C14.9587 0.5 16.2523 2.35038 16.2523 4.68383C16.2523 8.89223 13.2147 13.1661 11.7492 13.1661C10.0216 13.1661 9.43208 12.1345 9.27652 11.7824C9.24377 11.7087 9.26833 11.6351 9.32565 11.5859C11.962 9.46536 15.3353 2.75976 12.6252 2.59601C9.23558 2.39951 3.43059 7.82785 3.43059 12.9532C3.43059 15.5839 6.52785 16.4179 9.543 17.2297ZM32.7666 21.7299C32.7584 21.8773 32.6274 21.9919 32.48 21.9673C31.7349 21.8609 29.7617 21.4351 29.7617 20.1169C29.7617 17.9116 30.4564 14.4492 30.9912 11.7837L30.9913 11.7836C31.2546 10.471 31.4792 9.35157 31.563 8.67076C31.5875 8.49882 31.7431 8.36782 31.915 8.3842C32.6683 8.4497 34.4859 8.76901 34.4859 10.5785C34.4859 10.9469 34.3959 11.6183 34.2485 12.4616C35.8696 8.85907 37.0241 8.42513 37.892 8.42513C38.1049 8.42513 38.3095 8.43332 38.506 8.45788C39.4067 8.55613 40.1026 8.88364 40.5775 9.33395C41.0851 9.81702 41.3471 10.4393 41.3471 11.0943C41.3471 11.4339 41.2114 12.2128 41.0581 13.0918L41.0581 13.092L41.0524 13.1248C42.739 9.07195 43.918 8.42513 44.8105 8.42513C45.0233 8.42513 45.228 8.43332 45.4245 8.45788C46.3252 8.55613 47.0211 8.88364 47.496 9.33395C48.0036 9.81702 48.2656 10.4393 48.2656 11.0943C48.2656 11.4113 48.1395 12.1334 47.9948 12.9615L47.9463 13.2394C47.9217 13.3458 47.9054 13.4441 47.889 13.5505C47.8853 13.5765 47.8799 13.6024 47.8744 13.6291L47.8744 13.6291L47.8744 13.6292L47.8743 13.6293C47.8676 13.6615 47.8607 13.6949 47.8563 13.7307C47.6941 14.6363 47.5236 15.4955 47.3621 16.3093L47.3619 16.3101L47.3618 16.3104L47.3618 16.3105L47.3618 16.3106C46.9934 18.167 46.6719 19.7869 46.6036 21.1813C46.5872 21.3778 46.4152 21.5252 46.2187 21.4924C45.4164 21.3614 43.5905 20.9275 43.5905 19.6666C43.5905 18.0089 43.8868 16.5289 44.3181 14.3747C44.3937 13.9967 44.4736 13.598 44.5567 13.1739C44.5648 13.1657 44.5648 13.1575 44.5648 13.1493C44.704 12.3224 44.6222 11.561 43.9262 11.561C41.6337 11.561 39.8161 21.1404 39.8161 21.1404H39.8079C39.7997 21.3287 39.6196 21.4679 39.4312 21.4351C38.6289 21.3041 36.803 20.8702 36.803 19.6093C36.803 17.6607 37.0896 16.015 37.6463 13.1739C37.6545 13.1657 37.6545 13.1575 37.6545 13.1493C37.7937 12.3224 37.7118 11.561 37.0159 11.561C34.7234 11.561 32.8402 20.7638 32.8402 20.7638C32.7993 21.1158 32.7747 21.4433 32.7666 21.7299ZM55.0864 22.3113C58.9755 22.3113 61.4646 18.6188 61.4646 13.4279C61.4646 10.5377 60.1709 8.58084 57.903 8.58084C56.5929 8.58084 55.5449 8.89196 53.6864 12.9202C53.801 12.0114 53.8665 11.2172 53.8665 10.5786C53.8665 8.72003 51.9424 8.42527 51.2383 8.38434C51.0991 8.37615 50.9763 8.48259 50.9763 8.62177C50.9319 11.0866 50.2056 14.7731 49.4539 18.5886C49.0945 20.413 48.7292 22.2668 48.4299 24.0307C45.6625 23.6459 42.6904 23.3757 39.6856 23.3757C34.249 23.3757 29.8933 23.6705 26.3972 24.1535C27.0604 21.4926 27.6171 18.2503 28.0101 14.3121L28.0514 13.892V13.892L28.0514 13.8919C28.1931 12.4541 28.3265 11.0998 28.2967 10.4803C28.2066 8.61359 26.258 8.42527 25.5538 8.41709C25.4147 8.41709 25.3 8.52352 25.3082 8.66271C25.3082 8.76038 25.3098 8.87084 25.3116 8.99408V8.99416V8.99423V8.99431C25.3139 9.14995 25.3164 9.32598 25.3164 9.5224C25.1854 12.0032 23.0648 20.854 20.412 20.854C19.6683 20.854 19.6991 19.7671 19.7188 19.0719V19.0718V19.0718C19.7217 18.9711 19.7243 18.8786 19.7243 18.7989C19.7243 18.5541 19.8983 17.4859 20.1113 16.1792L20.1114 16.1788L20.1114 16.1787L20.1114 16.1785L20.1114 16.1785L20.1114 16.1785L20.1114 16.1784C20.4469 14.1198 20.8787 11.4696 20.8787 10.5131C20.8787 8.63815 18.9301 8.35977 18.2341 8.31884C18.1031 8.31065 17.9885 8.4089 17.9721 8.5399C17.9082 9.28677 17.7236 10.4906 17.512 11.8702L17.512 11.8703C17.1275 14.3775 16.6539 17.4652 16.6539 19.4457C16.6539 22.0084 18.2669 23.5231 19.667 23.5231C21.7794 23.5231 23.3678 20.9031 24.3093 18.3895C24.2407 18.7224 24.172 19.0575 24.1031 19.394L24.102 19.3995L24.1014 19.4024L24.1013 19.4029L24.1013 19.403L24.1012 19.4035C23.7349 21.1915 23.3604 23.02 22.9338 24.7676C12.4128 27.0028 12.3555 31.3094 12.3555 32.8569C12.3555 35.2886 14.1731 36.5003 15.8679 36.5003L15.9395 36.5004C17.7528 36.5021 22.3784 36.5066 25.5211 27.2239C29.2383 26.6344 34.159 26.2495 40.6845 26.2495C43.0589 26.2495 45.5807 26.4788 48.0287 26.8309C47.8732 28.0999 47.7749 29.2707 47.7749 30.3024C47.7749 31.8744 49.699 32.7996 50.4932 33.1189C50.6569 33.1844 50.8289 33.0698 50.8289 32.8896C50.8698 29.6801 51.5085 25.66 52.1798 21.8365C52.9331 22.1148 53.891 22.3113 55.0864 22.3113ZM16.1873 35.0757C14.7217 35.0757 14.1322 34.1096 14.1322 33.4955C14.1322 33.4844 14.1317 33.47 14.1312 33.4526C14.1162 32.9461 14.0248 29.858 22.0905 27.8871C20.8132 31.9972 19.0775 35.0757 16.1873 35.0757ZM57.2316 11.7249C57.9275 11.7249 58.255 12.4208 58.255 13.5015C58.255 17.3333 56.4456 20.7885 53.1132 20.7885C52.8594 20.7885 52.6138 20.7639 52.3681 20.723C52.5647 19.6258 52.7612 18.5451 52.9495 17.5216C54.1285 14.1074 55.7824 11.7249 57.2316 11.7249ZM73.0899 18.4213C72.642 20.72 72.1053 23.4749 72.1053 27.1253C72.1053 29.2131 72.8012 30.4085 73.1369 30.8424C73.2106 30.9406 73.1533 31.0798 73.0305 31.1044C70.9426 31.4647 68.994 30.5067 68.994 26.6668C68.994 23.9058 69.4475 21.105 69.8242 18.7785C70.3501 15.5302 70.7263 13.2064 69.5098 13.2064C68.1016 13.2064 66.202 17.2101 65.3096 21.7379C65.1295 22.8268 64.9657 24.3742 64.9002 25.0211C64.8838 25.1766 64.7283 25.2831 64.5809 25.2339C62.5831 24.6117 61.5433 23.5801 61.9445 21.615C62.5143 18.8506 62.9828 15.7614 63.4189 12.886C63.9981 9.06765 64.52 5.62633 65.1458 3.82352C65.7599 2.0632 67.6758 2.42345 68.3554 2.61177C68.4864 2.64452 68.5601 2.79189 68.5191 2.92289C67.6512 5.56747 67.0044 10.1361 66.374 14.6229C67.8887 11.0859 69.1496 10.5209 70.5251 10.5209C72.834 10.5209 73.6855 12.1257 73.6855 14.0252C73.6855 15.3642 73.4104 16.7758 73.0899 18.4213ZM60.1135 26.3314C59.7889 26.2578 59.4441 26.1787 59.0803 26.0952C57.3792 25.7048 55.2649 25.2195 52.8839 24.7676C52.5727 25.1115 52.2943 25.5618 52.2207 26.0858C52.1388 26.6343 52.3025 27.1583 52.5236 27.5923C58.1403 28.714 62.5288 30.1222 62.5288 30.1222C62.5288 30.1222 63.2821 27.0519 60.1135 26.3314ZM64.5249 29.9588C64.091 29.1073 64.2138 28.1658 64.8033 27.8628C65.401 27.5599 66.2361 28.002 66.67 28.8699C67.104 29.7214 66.9894 30.6712 66.3917 30.9659C65.794 31.2607 64.9588 30.8185 64.5249 29.9588Z" fill="white"/>
</svg>