<svg id="visual" viewBox="0 0 900 600" width="900" height="600" xmlns="http://www.w3.org/2000/svg" xmlns:xlink="http://www.w3.org/1999/xlink" version="1.1"><rect x="0" y="0" width="900" height="600" fill="#f3f8fc"></rect><path d="M0 74L21.5 127.8C43 181.7 86 289.3 128.8 334.2C171.7 379 214.3 361 257.2 319.7C300 278.3 343 213.7 385.8 202.2C428.7 190.7 471.3 232.3 514.2 220.2C557 208 600 142 642.8 157.5C685.7 173 728.3 270 771.2 314.5C814 359 857 351 878.5 347L900 343L900 0L878.5 0C857 0 814 0 771.2 0C728.3 0 685.7 0 642.8 0C600 0 557 0 514.2 0C471.3 0 428.7 0 385.8 0C343 0 300 0 257.2 0C214.3 0 171.7 0 128.8 0C86 0 43 0 21.5 0L0 0Z" fill="#0066FF" stroke-linecap="round" stroke-linejoin="miter"></path></svg>