<svg id="visual" viewBox="0 0 900 600" width="900" height="600" xmlns="http://www.w3.org/2000/svg" xmlns:xlink="http://www.w3.org/1999/xlink" version="1.1"><path d="M0 85L13.7 83C27.3 81 54.7 77 82 80C109.3 83 136.7 93 163.8 87C191 81 218 59 245.2 57C272.3 55 299.7 73 327 81C354.3 89 381.7 87 409 79C436.3 71 463.7 57 491 56C518.3 55 545.7 67 573 74C600.3 81 627.7 83 654.8 81C682 79 709 73 736.2 76C763.3 79 790.7 91 818 90C845.3 89 872.7 75 886.3 68L900 61L900 0L886.3 0C872.7 0 845.3 0 818 0C790.7 0 763.3 0 736.2 0C709 0 682 0 654.8 0C627.7 0 600.3 0 573 0C545.7 0 518.3 0 491 0C463.7 0 436.3 0 409 0C381.7 0 354.3 0 327 0C299.7 0 272.3 0 245.2 0C218 0 191 0 163.8 0C136.7 0 109.3 0 82 0C54.7 0 27.3 0 13.7 0L0 0Z" fill="#004cbb"></path><path d="M0 205L13.7 226C27.3 247 54.7 289 82 306C109.3 323 136.7 315 163.8 302C191 289 218 271 245.2 269C272.3 267 299.7 281 327 267C354.3 253 381.7 211 409 203C436.3 195 463.7 221 491 229C518.3 237 545.7 227 573 237C600.3 247 627.7 277 654.8 272C682 267 709 227 736.2 211C763.3 195 790.7 203 818 202C845.3 201 872.7 191 886.3 186L900 181L900 59L886.3 66C872.7 73 845.3 87 818 88C790.7 89 763.3 77 736.2 74C709 71 682 77 654.8 79C627.7 81 600.3 79 573 72C545.7 65 518.3 53 491 54C463.7 55 436.3 69 409 77C381.7 85 354.3 87 327 79C299.7 71 272.3 53 245.2 55C218 57 191 79 163.8 85C136.7 91 109.3 81 82 78C54.7 75 27.3 79 13.7 81L0 83Z" fill="#0059dd"></path><path d="M0 421L13.7 430C27.3 439 54.7 457 82 453C109.3 449 136.7 423 163.8 415C191 407 218 417 245.2 428C272.3 439 299.7 451 327 440C354.3 429 381.7 395 409 392C436.3 389 463.7 417 491 425C518.3 433 545.7 421 573 419C600.3 417 627.7 425 654.8 416C682 407 709 381 736.2 393C763.3 405 790.7 455 818 475C845.3 495 872.7 485 886.3 480L900 475L900 179L886.3 184C872.7 189 845.3 199 818 200C790.7 201 763.3 193 736.2 209C709 225 682 265 654.8 270C627.7 275 600.3 245 573 235C545.7 225 518.3 235 491 227C463.7 219 436.3 193 409 201C381.7 209 354.3 251 327 265C299.7 279 272.3 265 245.2 267C218 269 191 287 163.8 300C136.7 313 109.3 321 82 304C54.7 287 27.3 245 13.7 224L0 203Z" fill="#0066ff"></path><path d="M0 517L13.7 522C27.3 527 54.7 537 82 535C109.3 533 136.7 519 163.8 512C191 505 218 505 245.2 510C272.3 515 299.7 525 327 521C354.3 517 381.7 499 409 498C436.3 497 463.7 513 491 515C518.3 517 545.7 505 573 497C600.3 489 627.7 485 654.8 477C682 469 709 457 736.2 467C763.3 477 790.7 509 818 523C845.3 537 872.7 533 886.3 531L900 529L900 473L886.3 478C872.7 483 845.3 493 818 473C790.7 453 763.3 403 736.2 391C709 379 682 405 654.8 414C627.7 423 600.3 415 573 417C545.7 419 518.3 431 491 423C463.7 415 436.3 387 409 390C381.7 393 354.3 427 327 438C299.7 449 272.3 437 245.2 426C218 415 191 405 163.8 413C136.7 421 109.3 447 82 451C54.7 455 27.3 437 13.7 428L0 419Z" fill="#3c80ff"></path><path d="M0 601L13.7 601C27.3 601 54.7 601 82 601C109.3 601 136.7 601 163.8 601C191 601 218 601 245.2 601C272.3 601 299.7 601 327 601C354.3 601 381.7 601 409 601C436.3 601 463.7 601 491 601C518.3 601 545.7 601 573 601C600.3 601 627.7 601 654.8 601C682 601 709 601 736.2 601C763.3 601 790.7 601 818 601C845.3 601 872.7 601 886.3 601L900 601L900 527L886.3 529C872.7 531 845.3 535 818 521C790.7 507 763.3 475 736.2 465C709 455 682 467 654.8 475C627.7 483 600.3 487 573 495C545.7 503 518.3 515 491 513C463.7 511 436.3 495 409 496C381.7 497 354.3 515 327 519C299.7 523 272.3 513 245.2 508C218 503 191 503 163.8 510C136.7 517 109.3 531 82 533C54.7 535 27.3 525 13.7 520L0 515Z" fill="#6198ff"></path></svg>